<svg width="209" height="96" viewBox="0 0 209 96" fill="none" xmlns="http://www.w3.org/2000/svg">
<path d="M4.31836 33.9766H17.9902C17.9902 27.1895 23.3125 22.4531 30.3438 22.4531C36.6914 22.4531 41.0371 26.75 41.0371 32.4141C41.0371 37.2969 39.0352 40.666 30.0996 49.2598L5.14844 72.8926V83H56.3691V71.2812H24.4355V70.9883L39.2305 56.8281C51.1445 45.4512 55.3926 40.1289 55.3926 31.4863C55.3926 19.7676 45.4316 10.9785 30.3438 10.9785C15.0605 10.9785 4.31836 20.4023 4.31836 33.9766ZM66.3789 12.541V83H93.2832C114.426 83 126.877 69.8652 126.877 47.502C126.877 25.1387 114.426 12.541 93.2832 12.541H66.3789ZM81.125 24.6992H91.5254C104.514 24.6992 111.838 32.8047 111.838 47.5508C111.838 62.7852 104.709 70.793 91.5254 70.793H81.125V24.6992ZM168.186 11.3203C147.287 11.3203 134.201 25.334 134.201 47.7949C134.201 70.207 147.287 84.2207 168.186 84.2207C189.035 84.2207 202.17 70.207 202.17 47.7949C202.17 25.334 189.035 11.3203 168.186 11.3203ZM168.186 23.625C179.709 23.625 187.082 33 187.082 47.7949C187.082 62.541 179.709 71.8672 168.186 71.8672C156.613 71.8672 149.24 62.541 149.24 47.7949C149.24 33 156.662 23.625 168.186 23.625Z" fill="white"/>
<rect x="60" y="41" width="149" height="15" fill="#2D1B44"/>
</svg>
